<?xml version="1.0" standalone="no"?><svg xmlns="http://www.w3.org/2000/svg" viewBox="0 0 1440 320"><path fill="#f3c671" fill-opacity="1" d="M0,192L18.5,192C36.9,192,74,192,111,165.3C147.7,139,185,85,222,58.7C258.5,32,295,32,332,53.3C369.2,75,406,117,443,128C480,139,517,117,554,144C590.8,171,628,245,665,234.7C701.5,224,738,128,775,106.7C812.3,85,849,139,886,133.3C923.1,128,960,64,997,37.3C1033.8,11,1071,21,1108,64C1144.6,107,1182,181,1218,186.7C1255.4,192,1292,128,1329,90.7C1366.2,53,1403,43,1422,37.3L1440,32L1440,320L1421.5,320C1403.1,320,1366,320,1329,320C1292.3,320,1255,320,1218,320C1181.5,320,1145,320,1108,320C1070.8,320,1034,320,997,320C960,320,923,320,886,320C849.2,320,812,320,775,320C738.5,320,702,320,665,320C627.7,320,591,320,554,320C516.9,320,480,320,443,320C406.2,320,369,320,332,320C295.4,320,258,320,222,320C184.6,320,148,320,111,320C73.8,320,37,320,18,320L0,320Z"></path></svg>