<?xml version="1.0" standalone="no"?><svg xmlns="http://www.w3.org/2000/svg" viewBox="0 0 1440 320"><path fill="#f3c671" fill-opacity="1" d="M0,128L18.5,138.7C36.9,149,74,171,111,170.7C147.7,171,185,149,222,122.7C258.5,96,295,64,332,74.7C369.2,85,406,139,443,176C480,213,517,235,554,224C590.8,213,628,171,665,176C701.5,181,738,235,775,250.7C812.3,267,849,245,886,213.3C923.1,181,960,139,997,117.3C1033.8,96,1071,96,1108,101.3C1144.6,107,1182,117,1218,106.7C1255.4,96,1292,64,1329,69.3C1366.2,75,1403,117,1422,138.7L1440,160L1440,320L1421.5,320C1403.1,320,1366,320,1329,320C1292.3,320,1255,320,1218,320C1181.5,320,1145,320,1108,320C1070.8,320,1034,320,997,320C960,320,923,320,886,320C849.2,320,812,320,775,320C738.5,320,702,320,665,320C627.7,320,591,320,554,320C516.9,320,480,320,443,320C406.2,320,369,320,332,320C295.4,320,258,320,222,320C184.6,320,148,320,111,320C73.8,320,37,320,18,320L0,320Z"></path></svg>